<svg width="123" height="21" viewBox="0 0 123 21" fill="none" xmlns="http://www.w3.org/2000/svg">
<path d="M4.592 6.44V9.848H10.088V13.016H4.592V16.712H10.808V20H0.488V3.152H10.808V6.44H4.592ZM19.7844 3.152C21.5604 3.152 23.1124 3.504 24.4404 4.208C25.7684 4.912 26.7924 5.904 27.5124 7.184C28.2484 8.448 28.6164 9.912 28.6164 11.576C28.6164 13.224 28.2484 14.688 27.5124 15.968C26.7924 17.248 25.7604 18.24 24.4164 18.944C23.0884 19.648 21.5444 20 19.7844 20H13.4724V3.152H19.7844ZM19.5204 16.448C21.0724 16.448 22.2804 16.024 23.1444 15.176C24.0084 14.328 24.4404 13.128 24.4404 11.576C24.4404 10.024 24.0084 8.816 23.1444 7.952C22.2804 7.088 21.0724 6.656 19.5204 6.656H17.5764V16.448H19.5204ZM44.5878 20L41.0838 13.64H40.0998V20H35.9958V3.152H42.8838C44.2118 3.152 45.3398 3.384 46.2678 3.848C47.2118 4.312 47.9158 4.952 48.3798 5.768C48.8438 6.568 49.0758 7.464 49.0758 8.456C49.0758 9.576 48.7558 10.576 48.1158 11.456C47.4918 12.336 46.5638 12.96 45.3318 13.328L49.2198 20H44.5878ZM40.0998 10.736H42.6438C43.3958 10.736 43.9558 10.552 44.3238 10.184C44.7078 9.816 44.8998 9.296 44.8998 8.624C44.8998 7.984 44.7078 7.48 44.3238 7.112C43.9558 6.744 43.3958 6.56 42.6438 6.56H40.0998V10.736ZM64.2761 13.088C64.2761 13.472 64.2521 13.872 64.2041 14.288H54.9161C54.9801 15.12 55.2441 15.76 55.7081 16.208C56.1881 16.64 56.7721 16.856 57.4601 16.856C58.4841 16.856 59.1961 16.424 59.5961 15.56H63.9641C63.7401 16.44 63.3321 17.232 62.7401 17.936C62.1641 18.64 61.4361 19.192 60.5561 19.592C59.6761 19.992 58.6921 20.192 57.6041 20.192C56.2921 20.192 55.1241 19.912 54.1001 19.352C53.0761 18.792 52.2761 17.992 51.7001 16.952C51.1241 15.912 50.8361 14.696 50.8361 13.304C50.8361 11.912 51.1161 10.696 51.6761 9.656C52.2521 8.616 53.0521 7.816 54.0761 7.256C55.1001 6.696 56.2761 6.416 57.6041 6.416C58.9001 6.416 60.0521 6.688 61.0601 7.232C62.0681 7.776 62.8521 8.552 63.4121 9.56C63.9881 10.568 64.2761 11.744 64.2761 13.088ZM60.0761 12.008C60.0761 11.304 59.8361 10.744 59.3561 10.328C58.8761 9.912 58.2761 9.704 57.5561 9.704C56.8681 9.704 56.2841 9.904 55.8041 10.304C55.3401 10.704 55.0521 11.272 54.9401 12.008H60.0761ZM72.4651 16.16L75.3691 6.608H79.7371L74.9851 20H69.9211L65.1691 6.608H69.5611L72.4651 16.16ZM83.5286 5.216C82.8086 5.216 82.2166 5.008 81.7526 4.592C81.3046 4.16 81.0806 3.632 81.0806 3.008C81.0806 2.368 81.3046 1.84 81.7526 1.424C82.2166 0.991999 82.8086 0.775999 83.5286 0.775999C84.2326 0.775999 84.8086 0.991999 85.2566 1.424C85.7206 1.84 85.9526 2.368 85.9526 3.008C85.9526 3.632 85.7206 4.16 85.2566 4.592C84.8086 5.008 84.2326 5.216 83.5286 5.216ZM85.5686 6.608V20H81.4646V6.608H85.5686ZM101.167 13.088C101.167 13.472 101.143 13.872 101.095 14.288H91.8067C91.8707 15.12 92.1347 15.76 92.5987 16.208C93.0787 16.64 93.6627 16.856 94.3507 16.856C95.3747 16.856 96.0867 16.424 96.4867 15.56H100.855C100.631 16.44 100.223 17.232 99.6307 17.936C99.0547 18.64 98.3267 19.192 97.4467 19.592C96.5667 19.992 95.5827 20.192 94.4947 20.192C93.1827 20.192 92.0147 19.912 90.9907 19.352C89.9667 18.792 89.1667 17.992 88.5907 16.952C88.0147 15.912 87.7267 14.696 87.7267 13.304C87.7267 11.912 88.0067 10.696 88.5667 9.656C89.1427 8.616 89.9427 7.816 90.9667 7.256C91.9907 6.696 93.1667 6.416 94.4947 6.416C95.7907 6.416 96.9427 6.688 97.9507 7.232C98.9587 7.776 99.7427 8.552 100.303 9.56C100.879 10.568 101.167 11.744 101.167 13.088ZM96.9667 12.008C96.9667 11.304 96.7267 10.744 96.2467 10.328C95.7667 9.912 95.1667 9.704 94.4467 9.704C93.7587 9.704 93.1747 9.904 92.6947 10.304C92.2307 10.704 91.9427 11.272 91.8307 12.008H96.9667ZM122.556 6.608L118.932 20H114.396L112.284 11.312L110.1 20H105.588L101.94 6.608H106.044L107.94 16.184L110.196 6.608H114.54L116.82 16.136L118.692 6.608H122.556Z" fill="#54B435"/>
</svg>
