<svg width="2497" height="960" viewBox="0 0 2497 960" fill="none" xmlns="http://www.w3.org/2000/svg">
<path d="M599.476 460.522C609.926 445.087 615.975 427.098 616.972 408.485C617.97 389.872 613.879 371.339 605.138 354.876C596.397 338.413 583.337 324.642 567.36 315.041C551.383 305.441 533.093 300.373 514.454 300.384V274.717C514.454 267.91 511.749 261.381 506.936 256.568C502.123 251.754 495.594 249.05 488.787 249.05C481.98 249.05 475.451 251.754 470.638 256.568C465.824 261.381 463.12 267.91 463.12 274.717V300.384H411.787V274.717C411.787 267.91 409.083 261.381 404.269 256.568C399.456 251.754 392.927 249.05 386.12 249.05C379.313 249.05 372.785 251.754 367.971 256.568C363.158 261.381 360.454 267.91 360.454 274.717V300.384H334.787C327.98 300.384 321.451 303.088 316.638 307.901C311.824 312.715 309.12 319.243 309.12 326.05C309.12 332.858 311.824 339.386 316.638 344.199C321.451 349.013 327.98 351.717 334.787 351.717H360.454V608.384H334.787C327.98 608.384 321.451 611.088 316.638 615.901C311.824 620.715 309.12 627.243 309.12 634.05C309.12 640.858 311.824 647.386 316.638 652.199C321.451 657.013 327.98 659.717 334.787 659.717H360.454V685.384C360.454 692.191 363.158 698.719 367.971 703.533C372.785 708.346 379.313 711.05 386.12 711.05C392.927 711.05 399.456 708.346 404.269 703.533C409.083 698.719 411.787 692.191 411.787 685.384V659.717H463.12V685.384C463.12 692.191 465.824 698.719 470.638 703.533C475.451 708.346 481.98 711.05 488.787 711.05C495.594 711.05 502.123 708.346 506.936 703.533C511.749 698.719 514.454 692.191 514.454 685.384V659.717H565.787C590.03 659.78 613.51 651.239 632.047 635.615C650.584 619.991 662.977 598.296 667.02 574.392C671.062 550.488 666.493 525.925 654.125 505.074C641.757 484.223 622.392 468.436 599.476 460.523V460.522ZM411.787 351.717H514.454C528.068 351.717 541.125 357.125 550.752 366.752C560.379 376.379 565.787 389.436 565.787 403.05C565.787 416.665 560.379 429.722 550.752 439.348C541.125 448.975 528.068 454.384 514.454 454.384H411.787V351.717ZM565.787 608.384H411.787V505.717H565.787C579.401 505.717 592.458 511.125 602.085 520.752C611.712 530.379 617.12 543.436 617.12 557.05C617.12 570.665 611.712 583.722 602.085 593.348C592.458 602.975 579.401 608.384 565.787 608.384Z" fill="#FA8906"/>
<circle cx="480" cy="480" r="430" stroke="url(#paint0_linear_107_3269)" stroke-width="100"/>
<path d="M915 657.075H989.318V528.792H1076.52C1150.83 528.792 1194.93 483.719 1194.93 416.854C1194.93 384.164 1183.04 356.427 1163.22 336.119C1142.41 314.821 1111.69 302.934 1070.57 302.934H915V657.075ZM989.318 365.342H1064.63C1100.3 365.342 1121.11 384.164 1121.11 417.349C1121.11 449.544 1101.29 470.346 1063.64 470.346H989.318V365.342Z" fill="#FA8906"/>
<path d="M1230.46 657.075H1302.3V514.924H1360.27C1404.86 514.924 1426.66 536.717 1429.63 575.35C1432.61 613.489 1433.6 653.113 1442.52 657.075H1511.38V653.608C1499 648.16 1500.98 610.021 1496.03 559.996C1491.57 516.905 1474.72 498.083 1442.02 488.673V487.187C1487.6 474.804 1506.93 443.105 1506.93 401.499C1506.93 342.558 1461.34 302.934 1392.97 302.934H1230.46V657.075ZM1302.3 360.885H1380.59C1418.73 360.885 1437.07 382.183 1437.07 410.91C1437.07 439.142 1417.74 459.45 1378.6 459.45H1302.3V360.885Z" fill="#FA8906"/>
<path d="M1708.76 665C1813.3 665 1879.19 586.742 1879.19 480.748C1879.19 374.753 1813.3 296 1708.76 296C1604.22 296 1537.83 374.753 1537.83 480.748C1537.83 586.742 1604.22 665 1708.76 665ZM1709.25 606.059C1644.35 606.059 1611.15 551.081 1611.15 480.748C1611.15 409.919 1644.35 354.941 1709.25 354.941C1774.16 354.941 1805.86 409.919 1805.86 480.748C1805.86 551.081 1774.16 606.059 1709.25 606.059Z" fill="#FA8906"/>
<path d="M1870.52 657.075H1952.77L2026.09 527.801H2027.08L2099.42 657.075H2183.15L2065.73 471.337L2169.77 302.934H2091.49L2026.09 414.872H2025.1L1959.7 302.934H1878.94L1984.97 471.832L1870.52 657.075Z" fill="#FA8906"/>
<path d="M2307.24 657.075H2379.08V520.372L2497 302.934H2421.69L2369.17 407.938C2358.77 429.236 2345.39 458.459 2345.39 458.459H2344.4C2344.4 458.459 2332.01 429.236 2321.11 407.938L2267.61 302.934H2189.32L2307.24 520.372V657.075Z" fill="#FA8906"/>
<defs>
<linearGradient id="paint0_linear_107_3269" x1="35" y1="480" x2="931" y2="480" gradientUnits="userSpaceOnUse">
<stop stop-color="#BE43C8"/>
<stop offset="1" stop-color="#6618E6"/>
</linearGradient>
</defs>
</svg>
